PathFileType	4	(X/Y/Z)	/Users/itak/Documents/Research/Walk-IL/dataset/trc/00266_00009.trc
DataRate	CameraRate	NumFrames	NumMarkers	Units	OrigDataRate	OrigDataStartFrame	OrigNumFrames
100.000000	100.000000	4	54	mm	100.000000	210	421
Frame#	Time	RPSI			LPSI			L3			STRN			T10			C7			CLAV			RBAK			LBAK			LSHO			LUPA			LAEL			LAOL			LWTS			LWPS			LFRA			LIFD			LHPS			LHTS			RSHO			RUPA			RAEL			RAOL			RWPS			RFRA			RIFD			RHTS			RHPS			RBHD			LFHD			RFHD			LBHD			LHIP			RHIP			RASI			LASI			LKNE			LTHI			LANK			LTIP			LTOE			LMT1			LMT5			LHEE			RKNE			RTHI			RANK			RTIP			RTOE			RMT1			RMT5			RWTS			RHEE			*53			
		X1	Y1	Z1	X2	Y2	Z2	X3	Y3	Z3	X4	Y4	Z4	X5	Y5	Z5	X6	Y6	Z6	X7	Y7	Z7	X8	Y8	Z8	X9	Y9	Z9	X10	Y10	Z10	X11	Y11	Z11	X12	Y12	Z12	X13	Y13	Z13	X14	Y14	Z14	X15	Y15	Z15	X16	Y16	Z16	X17	Y17	Z17	X18	Y18	Z18	X19	Y19	Z19	X20	Y20	Z20	X21	Y21	Z21	X22	Y22	Z22	X23	Y23	Z23	X24	Y24	Z24	X25	Y25	Z25	X26	Y26	Z26	X27	Y27	Z27	X28	Y28	Z28	X29	Y29	Z29	X30	Y30	Z30	X31	Y31	Z31	X32	Y32	Z32	X33	Y33	Z33	X34	Y34	Z34	X35	Y35	Z35	X36	Y36	Z36	X37	Y37	Z37	X38	Y38	Z38	X39	Y39	Z39	X40	Y40	Z40	X41	Y41	Z41	X42	Y42	Z42	X43	Y43	Z43	X44	Y44	Z44	X45	Y45	Z45	X46	Y46	Z46	X47	Y47	Z47	X48	Y48	Z48	X49	Y49	Z49	X50	Y50	Z50	X51	Y51	Z51	X52	Y52	Z52	X53	Y53	Z53	X54	Y54	Z54	

211	2.1	-406.9446411132812	1020.253112792969	358.4659423828125	-509.791748046875	1027.47802734375	296.75537109375	-478.8414306640625	1109.685546875	320.1317443847656	-347.4831237792969	1288.038330078125	100.6150207519531	-477.293701171875	1236.565795898438	317.2960205078125	-442.0917358398438	1496.908325195312	256.6317749023438	-355.5040588378906	1406.2744140625	120.2322006225586	-424.2187805175781	1358.335571289062	361.0610046386719	-547.8411865234375	1460.464965820312	213.3034973144531	-544.4783935546875	1460.77734375	108.9036026000977	-630.52734375	1349.03076171875	80.03079223632812	-643.48876953125	1145.513916015625	23.08022308349609	-659.165771484375	1110.708740234375	102.6586532592773	-450.8305053710938	995.700927734375	-41.75065994262695	-507.3404541015625	962.0977783203125	-95.25045013427734	-597.7374877929688	1060.06201171875	-25.56956481933594	-360.4797058105469	833.1173095703125	-105.1636581420898	-452.1396789550781	896.654052734375	-124.3042449951172	-394.0321655273438	927.0266723632812	-103.2338409423828	-270.1659240722656	1452.651611328125	298.0512084960938	-225.7105865478516	1388.4609375	350.1303100585938	-198.8422088623047	1110.736938476562	402.8878784179688	-291.3887634277344	1101.211181640625	382.3551940917969	-127.8674545288086	884.4873046875	339.2810668945312	-171.6698608398438	1042.428955078125	387.2251586914062	-145.6729888916016	709.612548828125	235.5610961914062	-117.9048843383789	783.088623046875	228.8980560302734	-101.5670166015625	779.3031616210938	299.841552734375	-346.6839294433594	1663.758178710938	216.9158935546875	-368.7636108398438	1660.107666015625	-9.457076072692871	-274.6275024414062	1661.86474609375	24.23107528686523	-456.8483276367188	1657.910400390625	129.4043273925781	-585.4891357421875	968.3182983398438	138.1999664306641	-264.7688293457031	988.1079711914062	321.9837341308594	-253.3088073730469	1031.325317382812	221.1867980957031	-494.6552734375	1009.274230957031	74.58147430419922	-518.7555541992188	487.5952453613281	185.6861114501953	-546.6384887695312	629.4439086914062	154.3638458251953	-571.3151245117188	39.98569488525391	357.2501831054688	-551.28466796875	270.8765258789062	268.1020202636719	-400.0213317871094	42.45880889892578	216.9536895751953	-405.878662109375	37.14969635009766	298.0421752929688	-510.9346313476562	38.16791534423828	243.4803161621094	-567.505126953125	50.06072616577148	436.9538269042969	-165.0262603759766	543.1461181640625	132.2071380615234	-192.20458984375	791.4121704101562	233.6615753173828	-104.3010482788086	46.27156448364258	61.12670516967773	-149.8415069580078	432.0863037109375	87.7293701171875	-75.97002410888672	130.5245056152344	-129.0372772216797	-133.7721862792969	102.8652114868164	-99.72732543945312	-44.85189056396484	80.60587310791016	-25.86636924743652	-154.4673156738281	900.5068969726562	260.6234130859375	-177.8641967773438	23.10194206237793	96.82181549072266	nan	nan	nan	
212	2.11	-400.3416137695312	1019.015075683594	352.4326171875	-503.7054443359375	1026.31787109375	291.6854248046875	-472.7194213867188	1108.491821289062	314.9282836914062	-343.1808166503906	1286.890380859375	94.35720825195312	-471.3056945800781	1235.289184570312	311.9792175292969	-436.5452575683594	1495.678344726562	251.2489318847656	-351.0055541992188	1405.109252929688	114.1521072387695	-418.0243530273438	1356.97021484375	355.3765869140625	-542.6083374023438	1459.2919921875	208.7182159423828	-540.0924682617188	1459.600219726562	104.2505111694336	-626.473876953125	1347.8994140625	76.13471984863281	-640.1084594726562	1144.339965820312	19.55742645263672	-655.3236694335938	1109.646850585938	99.31062316894531	-447.6570739746094	994.6439819335938	-46.02315139770508	-504.2457580566406	961.0335083007812	-99.2872314453125	-594.546875	1058.906616210938	-29.22265625	-357.4913024902344	832.0910034179688	-109.7343368530273	-449.221923828125	895.6032104492188	-128.5609588623047	-391.0500183105469	925.9822387695312	-107.6854095458984	-264.3555297851562	1451.27685546875	291.4412841796875	-219.6604614257812	1387.053344726562	343.2641296386719	-193.1410980224609	1109.375244140625	396.2789611816406	-285.6774291992188	1099.89208984375	375.9668884277344	-122.7477722167969	882.7319946289062	333.5103454589844	-166.1546173095703	1041.002807617188	380.8123474121094	-141.2218627929688	707.3624877929688	230.7156524658203	-113.2077484130859	780.8152465820312	223.6091156005859	-96.72222900390625	777.3032836914062	294.5554809570312	-341.3097839355469	1662.511840820312	211.1091766357422	-364.747802734375	1659.14404296875	-15.16590785980225	-270.4483032226562	1660.8427734375	17.95206069946289	-452.0842895507812	1656.765747070312	124.1544342041016	-581.0689697265625	967.5531005859375	133.9544067382812	-258.0188293457031	986.928955078125	314.2060241699219	-248.1529846191406	1030.049072265625	213.767578125	-491.0470886230469	1008.031982421875	69.54925537109375	-516.6458129882812	487.0709838867188	183.1162414550781	-543.9960327148438	628.8605346679688	151.1364593505859	-570.8453979492188	40.58300399780273	357.6214904785156	-549.9443969726562	271.0211181640625	267.1101379394531	-400.1130981445312	42.37556457519531	216.7321014404297	-405.7231140136719	37.1490478515625	297.9150085449219	-510.7977294921875	38.25103759765625	243.6328125	-566.764404296875	51.09292602539062	437.3264770507812	-161.0727996826172	542.2188720703125	123.7898941040039	-186.7665710449219	789.9273071289062	226.0416412353516	-96.87843322753906	47.00008392333984	43.21414184570312	-145.5224151611328	432.0226440429688	77.54825592041016	-71.74167633056641	134.1504669189453	-146.0608367919922	-128.9982452392578	105.7540664672852	-116.3433837890625	-38.90956878662109	82.95957183837891	-44.10212326049805	-149.4903106689453	898.4391479492188	254.8477020263672	-169.8051300048828	22.88071823120117	79.68637847900391	nan	nan	nan	
213	2.12	-393.6884155273438	1017.736206054688	346.2734985351562	-497.5288696289062	1025.137573242188	286.4907836914062	-466.525146484375	1107.2666015625	309.6685791015625	-338.8492431640625	1285.725463867188	88.03868865966797	-465.27197265625	1233.964721679688	306.6024475097656	-430.9384155273438	1494.410400390625	245.8336181640625	-346.4636840820312	1403.922485351562	108.0262908935547	-411.7503662109375	1355.556518554688	349.6336975097656	-537.3311767578125	1458.093994140625	204.0922393798828	-535.65771484375	1458.391967773438	99.56407165527344	-622.3308715820312	1346.716186523438	72.21206665039062	-636.6235961914062	1143.098266601562	16.05883407592773	-651.3430786132812	1108.548828125	96.00334167480469	-444.5503845214844	993.2825317382812	-50.30304718017578	-501.2878112792969	959.7105102539062	-103.2897644042969	-591.3587646484375	1057.610229492188	-32.84668350219727	-354.784423828125	830.641845703125	-114.2722625732422	-446.5291442871094	894.2262573242188	-132.7911987304688	-388.2520141601562	924.5592041015625	-112.1536026000977	-258.4789428710938	1449.864379882812	284.7677612304688	-213.5359954833984	1385.60400390625	336.3279724121094	-187.3538055419922	1107.968139648438	389.5260620117188	-279.8678588867188	1098.52978515625	369.4366455078125	-117.5460052490234	880.9210205078125	327.6715393066406	-160.55712890625	1039.528930664062	374.2682189941406	-136.6889038085938	705.0181274414062	225.87060546875	-108.3744659423828	778.4656982421875	218.2972106933594	-91.78234100341797	775.247314453125	289.2432556152344	-335.8683776855469	1661.224975585938	205.3014373779297	-360.6347351074219	1658.189208984375	-20.86858940124512	-266.1677551269531	1659.821899414062	11.68962097167969	-447.220703125	1655.600219726562	118.9065933227539	-576.59033203125	966.764892578125	129.6661987304688	-251.1826629638672	985.6951293945312	306.2408142089844	-242.96875	1028.752197265625	206.2263488769531	-487.4207153320312	1006.800842285156	64.45906066894531	-514.41455078125	486.5418701171875	180.4098815917969	-541.2755737304688	628.2825927734375	147.7780456542969	-570.3356323242188	41.25433349609375	358.0004577636719	-548.5253295898438	271.1979370117188	266.0437316894531	-400.1840515136719	42.28335189819336	216.5180358886719	-405.5518188476562	37.15744400024414	297.7789306640625	-510.6483154296875	38.35087203979492	243.7901916503906	-565.988525390625	52.22922515869141	437.7016906738281	-157.1776885986328	541.1849975585938	115.2826766967773	-181.3310089111328	788.4092407226562	218.1499481201172	-90.13526153564453	47.5157585144043	26.41175651550293	-141.396728515625	431.7362670898438	67.51236724853516	-68.46507263183594	137.236572265625	-162.0529632568359	-125.1384429931641	108.1324768066406	-131.8328857421875	-33.79629135131836	84.95604705810547	-61.32692718505859	-144.4313049316406	896.2808837890625	249.0004272460938	-162.3775177001953	22.66939735412598	63.89401245117188	nan	nan	nan	
214	2.13	-386.9799194335938	1016.421936035156	339.9864501953125	-491.2599792480469	1023.926879882812	281.1829528808594	-460.2581787109375	1106.01708984375	304.3438110351562	-334.493896484375	1284.553344726562	81.65553283691406	-459.1924743652344	1232.600708007812	301.165771484375	-425.2682800292969	1493.110717773438	240.3928375244141	-341.8798828125	1402.722045898438	101.855094909668	-405.392333984375	1354.10302734375	343.8377075195312	-532.0072021484375	1456.879150390625	199.4323425292969	-531.1700439453125	1457.169311523438	94.85402679443359	-618.0997924804688	1345.495971679688	68.26551055908203	-633.027587890625	1141.803100585938	12.58557510375977	-647.223388671875	1107.42919921875	92.73276519775391	-441.5064697265625	991.6279296875	-54.58501052856445	-498.4722290039062	958.1454467773438	-107.2567977905273	-588.1657104492188	1056.190307617188	-36.44022369384766	-352.3816528320312	828.768798828125	-118.7522811889648	-444.0595703125	892.536376953125	-136.9908294677734	-385.6365051269531	922.7645263671875	-116.6315994262695	-252.5355834960938	1448.419799804688	278.0275268554688	-207.3316345214844	1384.117797851562	329.3145141601562	-181.4687347412109	1106.522583007812	382.6216430664062	-273.9577026367188	1097.144165039062	362.7691345214844	-112.2585067749023	879.063232421875	321.7517395019531	-154.8653259277344	1038.01318359375	367.583251953125	-132.0859527587891	702.5917358398438	221.0180816650391	-103.4152755737305	776.0433349609375	212.9530029296875	-86.77043914794922	773.1366577148438	283.8856506347656	-330.3509826660156	1659.90283203125	199.4913787841797	-356.4226379394531	1657.245239257812	-26.56605529785156	-261.7788391113281	1658.79833984375	5.44423246383667	-442.2457580566406	1654.427856445312	113.6673202514648	-572.0491943359375	965.9564819335938	125.3259124755859	-244.3361358642578	984.392578125	298.1524658203125	-237.7446441650391	1027.449951171875	198.5571746826172	-483.7345581054688	1005.624816894531	59.28055572509766	-512.0625610351562	486.0079345703125	177.5464019775391	-538.46337890625	627.7147216796875	144.2803497314453	-569.7890014648438	41.99735260009766	358.375	-547.0392456054688	271.4063415527344	264.8736877441406	-400.23095703125	42.18451690673828	216.3174285888672	-405.3712768554688	37.18019104003906	297.6347961425781	-510.4913940429688	38.463134765625	243.9464569091797	-565.20654296875	53.48056793212891	438.0575561523438	-153.3089294433594	540.0499267578125	106.6745071411133	-175.9169769287109	786.8811645507812	209.9602661132812	-84.14079284667969	47.70085144042969	10.83795070648193	-137.4544677734375	431.2005004882812	57.62964630126953	-66.13832092285156	139.6495819091797	-176.9141235351562	-122.2030868530273	109.8944091796875	-146.1001434326172	-29.54854011535645	86.44333648681641	-77.42497253417969	-139.2922821044922	894.038818359375	243.069091796875	-155.66845703125	22.44970512390137	49.56966781616211	nan	nan	nan	
